<svg width="15" height="14" viewBox="0 0 15 14" fill="none" xmlns="http://www.w3.org/2000/svg">
<path d="M7 0C5.61553 0 4.26215 0.410543 3.11101 1.17971C1.95987 1.94888 1.06266 3.04213 0.532846 4.32121C0.00303296 5.6003 -0.13559 7.00776 0.134506 8.36563C0.404603 9.7235 1.07129 10.9708 2.05026 11.9497C3.02922 12.9287 4.2765 13.5954 5.63437 13.8655C6.99224 14.1356 8.3997 13.997 9.67879 13.4672C10.9579 12.9373 12.0511 12.0401 12.8203 10.889C13.5895 9.73785 14 8.38447 14 7C14 5.14348 13.2625 3.36301 11.9497 2.05025C10.637 0.737498 8.85652 0 7 0ZM7 12.7556C5.86166 12.7556 4.74888 12.418 3.80239 11.7856C2.85589 11.1531 2.11819 10.2542 1.68256 9.20255C1.24694 8.15086 1.13296 6.99361 1.35504 5.87715C1.57712 4.76068 2.12528 3.73514 2.93021 2.93021C3.73514 2.12528 4.76068 1.57711 5.87715 1.35504C6.99362 1.13296 8.15087 1.24694 9.20256 1.68256C10.2542 2.11818 11.1531 2.85589 11.7856 3.80238C12.418 4.74888 12.7556 5.86166 12.7556 7C12.7535 8.52583 12.1465 9.98859 11.0675 11.0675C9.98859 12.1464 8.52584 12.7535 7 12.7556ZM9.55889 3.33667L7 5.90333L4.44111 3.33667L3.33667 4.44111L5.90334 7L3.33667 9.55889L4.44111 10.6633L7 8.09666L9.55889 10.6633L10.6633 9.55889L8.09667 7L10.6633 4.44111L9.55889 3.33667Z" fill="#5A5A5A"/>
</svg>
