<svg width="50" height="50" viewBox="0 0 50 50" fill="none" xmlns="http://www.w3.org/2000/svg">
<mask id="path-1-inside-1_827_32" fill="white">
<path d="M0 0H50V50H0V0Z"/>
</mask>
<path d="M0 0H50V50H0V0Z" fill="white"/>
<path d="M0 2H50V-2H0V2ZM50 48H0V52H50V48Z" fill="black" mask="url(#path-1-inside-1_827_32)"/>
<path d="M26.9977 22.256C26.9977 28.752 24.0577 32.392 19.5497 32.392C15.0697 32.392 12.1297 28.724 12.1297 22.228C12.1297 15.536 15.0697 12.008 19.5497 12.008C24.0297 12.008 26.9977 15.48 26.9977 22.256ZM15.6857 22.256C15.6857 27.268 17.1417 29.592 19.5777 29.592C22.0137 29.592 23.4417 27.296 23.4417 22.256C23.4417 17.188 22.0137 14.808 19.5497 14.808C17.0577 14.808 15.6857 17.132 15.6857 22.256ZM36.2568 32H33.2888C33.1208 32 32.9528 31.832 32.9528 31.664L33.1208 22.116L33.0368 16.376C32.0008 17.356 30.6008 18.056 29.0888 18.532C28.9488 18.588 28.7808 18.476 28.7808 18.308V16.208C28.7808 16.012 28.8928 15.844 29.0888 15.76C30.7968 15.116 32.1408 14.024 33.0088 12.68C33.1208 12.512 33.3168 12.4 33.5408 12.4H36.2568C36.4248 12.4 36.5928 12.568 36.5928 12.736L36.3688 23.04L36.5928 31.664C36.5928 31.832 36.4248 32 36.2568 32Z" fill="#0057FF"/>
</svg>
