<svg width="12" height="14" viewBox="0 0 12 14" fill="none" xmlns="http://www.w3.org/2000/svg">
<path d="M5.0625 0H6.9375C7.24922 0 7.5 0.292578 7.5 0.65625V5.25H9.55547C9.97266 5.25 10.1812 5.83789 9.88594 6.18242L6.32109 10.3441C6.14531 10.5492 5.85703 10.5492 5.68125 10.3441L2.11172 6.18242C1.81641 5.83789 2.025 5.25 2.44219 5.25H4.5V0.65625C4.5 0.292578 4.75078 0 5.0625 0ZM12 10.2812V13.3438C12 13.7074 11.7492 14 11.4375 14H0.5625C0.250781 14 0 13.7074 0 13.3438V10.2812C0 9.91758 0.250781 9.625 0.5625 9.625H4.00078L5.14922 10.9648C5.62031 11.5145 6.37969 11.5145 6.85078 10.9648L7.99922 9.625H11.4375C11.7492 9.625 12 9.91758 12 10.2812ZM9.09375 12.6875C9.09375 12.3867 8.88281 12.1406 8.625 12.1406C8.36719 12.1406 8.15625 12.3867 8.15625 12.6875C8.15625 12.9883 8.36719 13.2344 8.625 13.2344C8.88281 13.2344 9.09375 12.9883 9.09375 12.6875ZM10.5938 12.6875C10.5938 12.3867 10.3828 12.1406 10.125 12.1406C9.86719 12.1406 9.65625 12.3867 9.65625 12.6875C9.65625 12.9883 9.86719 13.2344 10.125 13.2344C10.3828 13.2344 10.5938 12.9883 10.5938 12.6875Z" fill="#5A5A5A"/>
</svg>
