<svg width="15" height="15" viewBox="0 0 15 15" fill="none" xmlns="http://www.w3.org/2000/svg">
<path d="M7.5 0C6.01664 0 4.56659 0.439867 3.33323 1.26398C2.09986 2.08809 1.13856 3.25943 0.570907 4.62987C0.00324959 6.00032 -0.145275 7.50832 0.144114 8.96317C0.433503 10.418 1.14781 11.7544 2.1967 12.8033C3.2456 13.8522 4.58197 14.5665 6.03682 14.8559C7.49168 15.1453 8.99968 14.9967 10.3701 14.4291C11.7406 13.8614 12.9119 12.9001 13.736 11.6668C14.5601 10.4334 15 8.98336 15 7.5C15 5.51087 14.2098 3.60322 12.8033 2.1967C11.3968 0.790176 9.48912 0 7.5 0ZM7.5 13.6667C6.28035 13.6667 5.08809 13.305 4.07399 12.6274C3.05988 11.9498 2.26949 10.9867 1.80275 9.85988C1.33601 8.73307 1.21389 7.49316 1.45183 6.29694C1.68977 5.10073 2.27709 4.00193 3.13951 3.13951C4.00193 2.27708 5.10073 1.68977 6.29694 1.45182C7.49316 1.21388 8.73307 1.336 9.85988 1.80274C10.9867 2.26948 11.9498 3.05988 12.6274 4.07398C13.305 5.08808 13.6667 6.28035 13.6667 7.5C13.6645 9.13482 13.0141 10.7021 11.8581 11.8581C10.7021 13.014 9.13483 13.6645 7.5 13.6667ZM10.2417 3.575L7.5 6.325L4.75834 3.575L3.575 4.75833L6.325 7.5L3.575 10.2417L4.75834 11.425L7.5 8.675L10.2417 11.425L11.425 10.2417L8.675 7.5L11.425 4.75833L10.2417 3.575Z" fill="#A10000"/>
</svg>
