<svg width="25" height="25" viewBox="0 0 25 25" fill="none" xmlns="http://www.w3.org/2000/svg">
<rect width="25" height="25" rx="12.5" fill="#DEDEDE"/>
<path d="M8.125 5.35712H9.375V6.65601H14.375V5.35712H15.625V6.65601H16.25C16.5815 6.65601 16.8995 6.79285 17.1339 7.03644C17.3683 7.28003 17.5 7.61041 17.5 7.9549V11.8516H16.25V9.90323H7.5V17.0471H13.75V18.346H7.5C7.16848 18.346 6.85054 18.2092 6.61612 17.9656C6.3817 17.722 6.25 17.3916 6.25 17.0471V7.9549C6.25 7.24051 6.8125 6.65601 7.5 6.65601H8.125V5.35712ZM15 18.346L16.125 19.4955C16.4375 19.8203 16.875 19.5605 16.875 19.1773V16.3977L18.625 14.1896C18.6946 14.0931 18.7371 13.9784 18.7475 13.8582C18.7579 13.7381 18.7359 13.6173 18.684 13.5095C18.6321 13.4016 18.5523 13.3109 18.4536 13.2475C18.3548 13.184 18.2411 13.1505 18.125 13.1505H13.75C13.25 13.1505 12.9375 13.7999 13.25 14.1896L15 16.3977V18.346Z" fill="black"/>
</svg>
