<svg width="15" height="15" viewBox="0 0 15 15" fill="none" xmlns="http://www.w3.org/2000/svg">
<path d="M13.0125 0.010434C12.8867 0.0310317 12.7346 0.0853348 12.6145 0.154618C12.5657 0.184578 12.3347 0.396173 12.1001 0.626493L11.6758 1.04594L12.8135 2.18068L13.9512 3.31543L14.3642 2.90348C14.5932 2.6769 14.8054 2.45033 14.8373 2.40164C14.9311 2.25746 14.9875 2.08144 14.9969 1.89793C15.01 1.69196 14.9818 1.54028 14.8955 1.35865C14.8335 1.22757 14.7922 1.18263 14.3097 0.701393C13.8836 0.274459 13.7709 0.173343 13.6771 0.12653C13.4649 0.0197966 13.2227 -0.0213988 13.0125 0.010434Z" fill="#5A5A5A"/>
<path d="M0.834039 1.10591C0.452933 1.1883 0.111251 1.53284 0.030524 1.91484C-0.00890076 2.09647 -0.0107781 13.9813 0.0286467 14.1592C0.107496 14.5263 0.389102 14.8352 0.755189 14.9551L0.894115 15H6.98619C12.8473 15 13.082 14.9981 13.1909 14.9663C13.5589 14.8539 13.8461 14.5562 13.94 14.1929C13.9663 14.0881 13.97 13.6836 13.97 10.255V6.43323H13.435H12.8999V10.1783V13.9233H6.96741H1.03492L1.03867 8.01925L1.0443 2.11707L4.82345 2.11145L8.60073 2.10771V1.59277V1.07782L4.77652 1.0797C1.63568 1.0797 0.929785 1.08531 0.834039 1.10591Z" fill="#5A5A5A"/>
<path d="M8.22875 4.47267L5.59668 7.09794L6.73812 8.23643L7.87769 9.37305L10.5248 6.7328L13.1719 4.09254L12.0455 2.96903C11.4259 2.3511 10.9059 1.84552 10.8909 1.84552C10.8758 1.84552 9.67809 3.02708 8.22875 4.47267Z" fill="#5A5A5A"/>
<path d="M4.76873 7.91628C4.75371 7.9425 4.71429 8.00991 4.68049 8.06421C4.58475 8.22525 4.54157 8.35633 4.53218 8.53047C4.52467 8.67278 4.48525 8.8076 4.18487 9.74761C4.00089 10.33 3.81503 10.9067 3.7756 11.0284C3.7343 11.152 3.70426 11.255 3.70614 11.2587C3.70989 11.2606 3.76246 11.2475 3.82441 11.2288C4.00464 11.1689 5.7337 10.6202 6.03032 10.5266C6.2312 10.4629 6.33446 10.4404 6.41894 10.4404C6.57101 10.4404 6.79629 10.3674 6.93897 10.2738C7.00093 10.2326 7.06288 10.197 7.07602 10.197C7.08728 10.197 7.09855 10.1914 7.09855 10.182C7.09855 10.1745 6.58039 9.65211 5.94584 9.0192C4.8044 7.88071 4.79314 7.87134 4.76873 7.91628Z" fill="#5A5A5A"/>
</svg>
