<svg width="13" height="13" viewBox="0 0 13 13" fill="none" xmlns="http://www.w3.org/2000/svg">
<path d="M11.9167 1.27451H10.5625V0.509804C10.5625 0.228137 10.3198 0 10.0208 0H9.47917C9.18017 0 8.9375 0.228137 8.9375 0.509804V1.27451H4.0625V0.509804C4.0625 0.228137 3.81983 0 3.52083 0H2.97917C2.68017 0 2.4375 0.228137 2.4375 0.509804V1.27451H1.08333C0.485062 1.27451 0 1.73104 0 2.29412V3.82353H13V2.29412C13 1.73104 12.5149 1.27451 11.9167 1.27451Z" fill="black"/>
<path d="M0 4.84314V11.9804C0 12.5435 0.485062 13 1.08333 13H11.9167C12.5149 13 13 12.5435 13 11.9804V4.84314H0ZM9.72671 11.2376L8.96079 11.9585L6.5 9.64243L4.03921 11.9585L3.27329 11.2376L5.73408 8.92157L3.27329 6.60553L4.03921 5.88467L6.5 8.20071L8.96079 5.88467L9.72671 6.60553L7.26592 8.92157L9.72671 11.2376Z" fill="black"/>
</svg>
