<svg width="50" height="50" viewBox="0 0 50 50" fill="none" xmlns="http://www.w3.org/2000/svg">
<mask id="path-1-inside-1_827_31" fill="white">
<path d="M0 0H50V50H0V0Z"/>
</mask>
<path d="M0 0H50V50H0V0Z" fill="white"/>
<path d="M0 2H50V-2H0V2ZM50 48H0V52H50V48Z" fill="black" mask="url(#path-1-inside-1_827_31)"/>
<path d="M26.9977 23.256C26.9977 29.752 24.0577 33.392 19.5497 33.392C15.0697 33.392 12.1297 29.724 12.1297 23.228C12.1297 16.536 15.0697 13.008 19.5497 13.008C24.0297 13.008 26.9977 16.48 26.9977 23.256ZM15.6857 23.256C15.6857 28.268 17.1417 30.592 19.5777 30.592C22.0137 30.592 23.4417 28.296 23.4417 23.256C23.4417 18.188 22.0137 15.808 19.5497 15.808C17.0577 15.808 15.6857 18.132 15.6857 23.256ZM36.2568 33H33.2888C33.1208 33 32.9528 32.832 32.9528 32.664L33.1208 23.116L33.0368 17.376C32.0008 18.356 30.6008 19.056 29.0888 19.532C28.9488 19.588 28.7808 19.476 28.7808 19.308V17.208C28.7808 17.012 28.8928 16.844 29.0888 16.76C30.7968 16.116 32.1408 15.024 33.0088 13.68C33.1208 13.512 33.3168 13.4 33.5408 13.4H36.2568C36.4248 13.4 36.5928 13.568 36.5928 13.736L36.3688 24.04L36.5928 32.664C36.5928 32.832 36.4248 33 36.2568 33Z" fill="#D6008D"/>
</svg>
