<svg width="14" height="15" viewBox="0 0 14 15" fill="none" xmlns="http://www.w3.org/2000/svg">
<g clip-path="url(#clip0_740_2034)">
<path d="M13.5895 5.19672H12.0342C11.8075 5.19672 11.624 5.38047 11.624 5.60687C11.624 5.83328 11.8075 6.01703 12.0342 6.01703H12.3984V8.42328C12.3984 8.64969 12.5821 8.83344 12.8086 8.83344C13.0352 8.83344 13.2187 8.64969 13.2187 8.42328V6.01703H13.5895C13.8159 6.01703 13.9996 5.83328 13.9996 5.60687C13.9996 5.38047 13.8159 5.19672 13.5895 5.19672Z" fill="#5A5A5A"/>
<path d="M4.63203 6.01703C4.85855 6.01703 5.04219 5.83339 5.04219 5.60687C5.04219 5.38036 4.85855 5.19672 4.63203 5.19672H3.44531C3.2188 5.19672 3.03516 5.38036 3.03516 5.60687V8.42328C3.03516 8.64979 3.2188 8.83344 3.44531 8.83344H4.63203C4.85855 8.83344 5.04219 8.64979 5.04219 8.42328C5.04219 8.19676 4.85855 8.01312 4.63203 8.01312H3.85547V7.42523H4.54453C4.77105 7.42523 4.95469 7.24159 4.95469 7.01508C4.95469 6.78856 4.77105 6.60492 4.54453 6.60492H3.85547V6.01703H4.63203Z" fill="#5A5A5A"/>
<path d="M10.5598 6.01703C10.7862 6.01703 10.9699 5.83328 10.9699 5.60687C10.9699 5.38047 10.7862 5.19672 10.5598 5.19672H9.37305C9.14637 5.19672 8.96289 5.38047 8.96289 5.60687V8.42328C8.96289 8.64969 9.14637 8.83344 9.37305 8.83344H10.5598C10.7862 8.83344 10.9699 8.64969 10.9699 8.42328C10.9699 8.19687 10.7862 8.01312 10.5598 8.01312H9.7832V7.42523H10.472C10.6987 7.42523 10.8821 7.24148 10.8821 7.01508C10.8821 6.78867 10.6987 6.60492 10.472 6.60492H9.7832V6.01703H10.5598Z" fill="#5A5A5A"/>
<path d="M1.93293 8.83344C2.02918 8.83344 2.12598 8.7998 2.20391 8.73117C2.37398 8.5816 2.39039 8.32238 2.24082 8.1523L1.58293 7.405C2.02699 7.24011 2.34309 6.82449 2.34309 6.33886C2.34309 5.70914 1.81207 5.19672 1.15938 5.19672H0.410703C0.41043 5.19672 0.41043 5.19672 0.410156 5.19672C0.18375 5.19672 0 5.38047 0 5.60687V8.42328C0 8.64969 0.18375 8.83344 0.410156 8.83344C0.636562 8.83344 0.820312 8.64969 0.820312 8.42328V7.77988L1.62504 8.69426C1.70598 8.7864 1.81918 8.83344 1.93293 8.83344ZM1.15938 6.6607C1.07898 6.6607 0.951289 6.66097 0.824141 6.66179C0.823594 6.53793 0.822773 6.14664 0.8225 6.01703H1.15938C1.35625 6.01703 1.52277 6.16441 1.52277 6.33886C1.52277 6.51332 1.35625 6.6607 1.15938 6.6607Z" fill="#5A5A5A"/>
<path d="M1.65384 3.13965C1.82884 3.28375 2.08724 3.25914 2.23134 3.08441C3.41095 1.65515 5.14919 0.835388 7.00009 0.835388C8.53818 0.835388 9.99806 1.40168 11.1243 2.41312H10.5143C10.2879 2.41312 10.1042 2.59687 10.1042 2.82328C10.1042 3.04996 10.2879 3.23343 10.5143 3.23343H12.0852C12.1795 3.23343 12.2733 3.1998 12.3463 3.13965C12.4396 3.06281 12.4956 2.94386 12.4954 2.82273V1.25265C12.4954 1.02597 12.3116 0.842498 12.0852 0.842498C11.8585 0.842498 11.6751 1.02597 11.6751 1.25265V1.805C10.3986 0.657654 8.7438 0.0150757 7.00009 0.0150757C4.90337 0.0150757 2.93462 0.943396 1.59861 2.56215C1.45451 2.73687 1.47939 2.99554 1.65384 3.13965Z" fill="#5A5A5A"/>
<path d="M7.02143 8.01311C6.75981 8.0136 6.50379 7.90732 6.34386 7.73038C6.19182 7.56249 5.93233 7.54964 5.76471 7.70194C5.59682 7.85397 5.58397 8.11346 5.736 8.28108C6.05349 8.63228 6.52473 8.83362 7.02143 8.83343C7.64323 8.83343 8.16577 8.43448 8.26393 7.88487C8.33804 7.46925 8.1521 6.92702 7.40807 6.65249C7.26261 6.59917 7.12179 6.54339 6.99983 6.49389C6.8396 6.42854 6.71245 6.37386 6.65202 6.34733C6.60581 6.30632 6.60526 6.25245 6.60964 6.2221C6.61511 6.18354 6.64409 6.08866 6.79284 6.04382C6.86339 6.02249 6.93311 6.01538 6.99983 6.01811C7.28311 6.0285 7.51171 6.21034 7.51471 6.2128C7.73565 6.32518 7.99405 6.24616 8.09796 6.06214C8.17944 5.91803 8.15729 5.72471 8.03971 5.58253C7.73264 5.31374 7.3635 5.18878 6.99983 5.19151C6.84971 5.19233 6.70014 5.2153 6.55632 5.2585C6.14561 5.3821 5.85495 5.70667 5.79753 6.10561C5.74366 6.48104 5.90663 6.84253 6.22272 7.0487C6.24077 7.06046 6.25991 7.07085 6.2796 7.0796C6.29436 7.08616 6.61429 7.22862 6.99983 7.37573C7.04057 7.39104 7.08214 7.40663 7.12397 7.42221C7.20983 7.45366 7.48682 7.56987 7.4562 7.74077C7.43296 7.87175 7.25987 8.01311 7.02143 8.01311Z" fill="#5A5A5A"/>
<path d="M12.2837 10.8905C12.1092 10.7464 11.8506 10.771 11.7065 10.9457C10.54 12.3591 8.82745 13.1764 6.99979 13.1945C5.44226 13.2104 3.95408 12.6422 2.81346 11.617H3.4235C3.64991 11.617 3.83366 11.4333 3.83366 11.2069C3.83366 10.9802 3.64991 10.7967 3.4235 10.7967H1.8526C1.63221 10.7926 1.43835 10.987 1.44245 11.2074V12.7775C1.44245 13.0042 1.6262 13.1876 1.8526 13.1876C2.07928 13.1876 2.26276 13.0042 2.26276 12.7775V12.2251C3.55352 13.3861 5.23664 14.0308 6.99979 14.0148C9.07327 13.9967 11.0163 13.0709 12.3392 11.468C12.4833 11.2933 12.4584 11.0346 12.2837 10.8905Z" fill="#5A5A5A"/>
</g>
<defs>
<clipPath id="clip0_740_2034">
<rect width="14" height="14" fill="white" transform="translate(0 0.0150757)"/>
</clipPath>
</defs>
</svg>
