<svg width="12" height="14" viewBox="0 0 12 14" fill="none" xmlns="http://www.w3.org/2000/svg">
<path d="M12 10.2813V13.3438C12 13.7074 11.7492 14 11.4375 14H0.5625C0.250781 14 0 13.7074 0 13.3438V10.2813C0 9.91763 0.250781 9.62505 0.5625 9.62505H4.00078V10.9649C4.5 11.0474 7.5 11.0474 7.99922 10.9649V9.62505H11.4375C11.7492 9.62505 12 9.91763 12 10.2813ZM9.09375 12.6875C9.09375 12.3867 8.88281 12.1406 8.625 12.1406C8.36719 12.1406 8.15625 12.3867 8.15625 12.6875C8.15625 12.9883 8.36719 13.2344 8.625 13.2344C8.88281 13.2344 9.09375 12.9883 9.09375 12.6875ZM10.5938 12.6875C10.5938 12.3867 10.3828 12.1406 10.125 12.1406C9.86719 12.1406 9.65625 12.3867 9.65625 12.6875C9.65625 12.9883 9.86719 13.2344 10.125 13.2344C10.3828 13.2344 10.5938 12.9883 10.5938 12.6875Z" fill="#5A5A5A"/>
<path d="M6.93768 10.1972H5.06268C4.75096 10.1972 4.50018 9.90465 4.50018 9.54099L4.50018 5.24788H2.44471C2.02752 5.24788 1.81893 4.66 2.11424 4.31547L5.67909 0.153807C5.85487 -0.0512689 6.14315 -0.0512689 6.31893 0.153807L9.88846 4.31547C10.1838 4.66 9.97518 5.24789 9.55799 5.24789H7.50018L7.50018 9.54099C7.50018 9.90465 7.2494 10.1972 6.93768 10.1972Z" fill="#5A5A5A"/>
</svg>
