<svg width="16" height="14" viewBox="0 0 16 14" fill="none" xmlns="http://www.w3.org/2000/svg">
<path d="M4.33146 5.06167H5.87382V9.53506C5.87382 9.9889 6.25021 10.3564 6.71395 10.3564H9.00713C9.47084 10.3564 9.84726 9.98894 9.84726 9.53506V5.06167H11.3891C11.6445 5.06167 11.8741 4.91131 11.9724 4.68053C12.0696 4.45069 12.0155 4.18498 11.835 4.00853L8.30635 0.558159C8.0599 0.317691 7.66065 0.317691 7.41367 0.558159L3.88561 4.00853C3.70511 4.18498 3.65102 4.45023 3.74875 4.68053C3.84691 4.91085 4.07602 5.06167 4.33146 5.06167Z" fill="black"/>
<path d="M14.7229 6.7384C14.3048 6.7384 13.9657 7.07008 13.9657 7.47928V10.5771C13.9657 11.5052 13.193 12.2601 12.2438 12.2601H3.47717C2.52795 12.2601 1.75579 11.5052 1.75579 10.5771V7.47928C1.75579 7.07008 1.41609 6.7384 0.998012 6.7384C0.57944 6.7384 0.240234 7.07008 0.240234 7.47931V10.5772C0.240234 12.3222 1.6923 13.7419 3.47717 13.7419H12.2438C14.0286 13.7419 15.4808 12.3222 15.4808 10.5772V7.47931C15.4808 7.07008 15.1415 6.7384 14.7229 6.7384Z" fill="black"/>
</svg>
