<?xml version="1.0" standalone="no"?>
<!DOCTYPE svg PUBLIC "-//W3C//DTD SVG 1.1//EN" "http://www.w3.org/Graphics/SVG/1.1/DTD/svg11.dtd">
<svg xmlns="http://www.w3.org/2000/svg">
<metadata>Generated by Fontastic.me</metadata>
<defs>
<font id="hpicons" horiz-adv-x="512">
<font-face font-family="hpicons" units-per-em="512" ascent="480" descent="-32"/>
<missing-glyph horiz-adv-x="512" />

<glyph glyph-name="accesscontrol" unicode="&#97;" d="M256 454c53 0 102-20 140-57 77-77 77-203 0-280-38-37-88-57-140-57-53 0-102 20-140 57-77 77-77 203 0 280 38 36 87 57 140 57m0 49c-63 0-127-24-175-72-97-97-97-253 0-350 48-48 112-72 175-72 63 0 127 24 175 72 97 97 97 253 0 350-48 48-112 72-175 72m89-193l-28 0 0 22c0 43-20 69-61 69-41 0-61-26-61-69l0-22-30 0c-8 0-15-9-15-18l0-119c0-9 10-18 19-18l179 0c8 0 15 9 15 18l0 119c0 9-11 18-18 18m-72-115l-34 0 8 34c-7 4-12 11-12 20 0 11 9 20 20 20 12 0 20-10 20-20 0-9-5-16-12-20z m13 115l-61 0 0 28c0 23 12 33 30 33 18 0 30-12 30-33z"/>
<glyph glyph-name="add" unicode="&#98;" d="M256 4c-12 0-21 10-21 22l0 209-209 0c-12 0-22 9-22 21 0 12 10 21 22 21l209 0 0 209c0 12 9 22 21 22 12 0 21-10 21-22l0-209 209 0c12 0 22-9 22-21 0-12-10-21-22-21l-209 0 0-209c0-13-9-22-21-22z"/>
<glyph glyph-name="calendar" unicode="&#99;" d="M0 0l0 452 84 0 0 54 42 0 0-53 255 0 0 53 41 0 0-53 86 0 0-453z m466 41l0 227-425 0 0-226 425 0z m0 268l0 103-425 0 0-103c0 0 425 0 425 0z m-117-236l0 81 84 0 0-83-84 0z"/>
<glyph glyph-name="clear" unicode="&#100;" d="M256 236l-226-225-19 19 225 226-225 226 19 19 226-225 226 225 19-19-225-226 225-226-19-19z"/>
<glyph glyph-name="down" unicode="&#101;" d="M33 183l18 24 190-152 0 452 30 0 0-452 190 150 18-24-223-176z"/>
<glyph glyph-name="download" unicode="&#102;" d="M32 0l0 32 448 0 0-32z m12 204l19 25 177-140 0 423 32 0 0-423 177 139 19-25-212-169z"/>
<glyph glyph-name="draghandle" unicode="&#103;" d="M146 438l74 0 0 74-74 0z m146 74l0-74 74 0 0 74z m-146-220l74 0 0 74-74 0z m146 0l74 0 0 74-74 0z m-146-146l74 0 0 74-74 0z m146 0l74 0 0 74-74 0z m-146-146l74 0 0 74-74 0z m146 0l74 0 0 74-74 0z"/>
<glyph glyph-name="dropcaret" unicode="&#104;" d="M512 384l-256-256-256 256"/>
<glyph glyph-name="errorstatus" unicode="&#105;" d="M256 512l-256-256 256-256 256 256z m107-363c-5-4-13-4-17 0l-90 90-87-88c-7-6-13-4-18 0-4 5-4 13 0 18l88 87-88 87c-4 5-4 13 0 18 5 4 13 4 18 0l87-88 87 88c5 4 13 4 18 0 4-5 4-13 0-18l-88-87 88-87c6-5 6-13 2-20z"/>
<glyph glyph-name="facebook" unicode="&#106;" d="M298 1l0 235 79 0 10 91-89 0 0 57c0 26 6 45 44 45l49 0 0 81c-8 2-36 4-70 4-70 0-117-43-117-119l0-66-79 0 0-92 79 0 0-233 94 0z"/>
<glyph glyph-name="edit" unicode="&#107;" d="M241-1l0 71c-38 4-75 20-103 43l-53-49-21 21 52 50c-25 30-40 67-43 106l-73 0 0 31 71 0c4 38 19 75 44 106l-52 49 21 21 51-50c29 24 66 39 104 43l0 72 31 0 0-71c38-4 75-20 103-43l54 49 21-21-52-50c25-30 40-67 43-106l73 0 0-31-71 0c-4-38-19-75-44-106l52-50-21-21-53 50c-28-24-65-39-103-43l0-71z m14 413c-85 0-156-71-156-156 0-85 70-156 156-156 86 0 156 71 156 156 0 85-71 156-156 156z"/>
<glyph glyph-name="filter" unicode="&#108;" d="M241 36l0 157-235 283 500 0-235-283 0-158-30 0z m15 186l189 226-378 0z"/>
<glyph glyph-name="help" unicode="&#109;" d="M241 12l0 55 31 0 0-55z m0 106l0 133 15 0c52 0 110 41 110 110 0 68-57 108-110 108-53 0-110-43-110-110l0-9-30 0 0 9c0 76 64 140 140 140 68 0 140-52 140-140 0-80-62-131-124-138l0-103z"/>
<glyph glyph-name="readpoint" unicode="&#110;" d="M411 243l0-116c0-20-17-37-38-37l-257 0c-20 0-37 17-37 37l0 257c0 20 17 37 37 37l159 0 72 72-231 0c-59 0-109-49-109-109l0-257c0-60 50-109 109-109l257 0c60 0 109 49 109 109l0 193z m-133-36c-8-9-22-9-31 0l-116 116c-8 9-8 23 0 31l30 30c9 9 22 9 31 0l71-71 175 174c9 9 23 9 31 0l30-29c9-9 9-23 0-31z"/>
<glyph glyph-name="readers" unicode="&#111;" d="M491 268c-7 0-12-6-12-12 0-124-100-224-224-224-124 0-224 100-224 224 0 124 100 224 224 224 39 0 76-11 108-28l-47-77c-18 10-39 15-61 15-75 0-134-59-134-134 0-75 59-134 134-134 75 0 134 59 134 134 0 6-5 12-11 12-7 0-12-6-12-12 0-62-50-112-112-112-62 0-112 50-112 112 0 62 50 112 112 112 18 0 34-4 49-12l-36-57c-5 1-9 2-13 2-25 0-45-20-45-45 0-25 20-45 45-45 24 0 45 20 45 45 0 4-1 9-2 13l198 122c3 3 5 6 5 9 0 3-1 6-3 7l-90 90c-2 2-5 3-7 3-4 0-7-2-9-5l-16-27c-35 21-76 31-119 31-135 0-246-110-246-246 0-136 109-247 246-247 135 0 246 110 246 247 0 9-5 15-11 15m-235-34c-13 0-22 9-22 22 0 13 9 22 22 22 13 0 22-9 22-22 0-13-10-22-22-22"/>
<glyph glyph-name="readerfilters" unicode="&#112;" d="M470 374c0 1 0 4-1 5-1 1-2 2-3 3l-205 118c-3 2-7 2-9 0l-205-118c-1-1-2-2-3-3-1-1-1-4-1-5l0-235c0-4 2-7 5-9l205-118c1-1 3-1 4-1 1 0 3 0 4 1l205 118c3 2 5 5 5 9l-1 235m-224-337l-184 107 0 213 184-106z m10 231l-185 106 185 107 185-107z m194-124l-184-107 0 214 184 106z"/>
<glyph glyph-name="person" unicode="&#113;" d="M429 3l0 114c0 84-68 152-152 152l-41 0c-85 0-153-68-153-152l0-114-31 0 0 114c0 82 56 154 133 175-30 23-48 59-48 96 0 66 54 121 120 121 66 0 121-55 121-121 0-38-19-73-48-96 75-21 131-93 130-175l0-114z m-172 475c-49 0-88-40-88-89 0-49 39-88 88-88 49 0 89 39 89 88 0 49-40 89-89 89z m68-475l0 124 31 0 0-125-31 0z m-166 0l0 124 31 0 0-125-31 0z"/>
<glyph glyph-name="ok" unicode="&#114;" d="M256 512c-141 0-256-115-256-256 0-141 115-256 256-256 141 0 256 115 256 256 0 141-115 256-256 256z m-21-393l-122 122 51 51 71-70 134 134 51-51z"/>
<glyph glyph-name="pinmap" unicode="&#115;" d="M256 508c-103 0-188-85-188-188 0-82 111-237 158-301 8-9 18-15 30-15 12 0 22 6 30 15 48 63 158 219 158 301 0 103-85 188-188 188m0-99c50 0 91-41 91-91 0-50-41-91-91-91-50 0-91 41-91 91 0 50 41 91 91 91m-49-107l33 0 0-33c0-10 7-16 16-16 10 0 16 7 16 16l0 33 33 0c10 0 16 7 16 16 0 9-7 16-16 16l-33 0 0 33c0 10-7 16-16 16-10 0-16-8-16-16l0-33-33 0c-10 0-16-8-16-16-1-9 6-16 16-16"/>
<glyph glyph-name="more" unicode="&#116;" d="M227 285l57 0 0-57-57 0z m-227 0l57 0 0-57-57 0z m455 0l57 0 0-57-57 0z"/>
<glyph glyph-name="monitor" unicode="&#117;" d="M463 439l-414 0c-19 0-35-16-35-35l0-248c0-19 16-35 35-35l146 0-15-30c-2-4-2-9 0-12 2-3 7-5 10-5l130 0c4 0 7 2 10 5 2 3 2 7 0 12l-15 30 146 0c19 0 35 16 35 35l0 248c2 19-14 35-33 35m-12-272l-390 0 0 226 390 0z"/>
<glyph glyph-name="mail" unicode="&#118;" d="M0 468l0-423 512 0 0 423z m351-249l-18-18 125-125-403 0 125 125-18 18-130-130 0 238 224-182 225 184 0-240z m130 218l0-70-225-185-224 184 0 71z"/>
<glyph glyph-name="logs" unicode="&#119;" d="M142 438l228 0c7 0 12 6 12 12 0 7-5 12-12 12l-228 0c-7 0-12-5-12-12 0-6 5-12 12-12m-24-45l275 0c6 0 11 5 11 11 0 7-5 12-11 12l-275 0c-6 0-11-5-11-12 1-6 6-11 11-11m298-23l-320 0c-6 0-12-5-12-12 0-6 6-11 12-11l320 0c6 0 12 5 12 11-1 7-6 12-12 12m90-51l-91 181-1 1c-2 4-5 6-10 6l-296 0c-5 0-8-2-10-6l-1-1-91-181c-1-2-2-3-2-5l0-92c0-7 6-12 12-12l12 0 0-194c0-6 5-12 11-12l435 0c6 0 11 6 11 12l0 194 12 0c6 0 12 5 12 12l0 92c-2 2-2 3-3 5m-392 165l283 0 80-160-443 0z m347-456l-411 0 0 182 411 0z m23 206l-456 0 0 68 456 0z"/>
<glyph glyph-name="linkedin" unicode="&#120;" d="M115 0l-106 0 0 341 106 0z m-53 388c-34 0-62 28-62 62 0 34 28 62 62 62 34 0 62-28 62-62 0-34-28-62-62-62z m450-388l-107 0 0 166c0 41 0 90-55 90-56 0-64-43-64-87l0-169-107 0 0 341 103 0 0-47 2 0c15 28 49 56 100 56 107 0 128-71 128-162z"/>
<glyph glyph-name="left" unicode="&#121;" d="M0 256l181 227 25-18-155-194 461 0 0-30-461 0 153-194-25-18z"/>
<glyph glyph-name="integration" unicode="&#122;" d="M256 505c-105 0-218-32-218-102l0-294c0-70 113-100 218-100 105 0 218 32 218 101l0 294c0 69-113 101-218 101m187-396c0-39-84-70-187-70-102 0-187 31-187 70l0 57c32-33 110-50 187-50 77 0 154 17 187 50z m0 93c-1 0 0 0 0 0 0-39-84-70-187-70-103 0-187 31-187 70l0 57c32-33 110-50 187-50 77 0 154 17 187 50z m0 92c-1 0 0 0 0 0 0-38-84-69-187-69-103 0-187 31-187 69l0 54c41-31 116-46 187-46 71 0 145 15 187 46z m-187 40c-102 0-187 31-187 69 0 39 84 70 187 70 102 0 187-31 187-70 0-38-85-69-187-69"/>
<glyph glyph-name="right" unicode="&#65;" d="M512 256l-181-227-25 18 155 194-461 0 0 30 461 0-153 194 25 18z"/>
<glyph glyph-name="search" unicode="&#66;" d="M202 115c-108 0-197 88-197 195 0 108 89 197 197 197 107 0 196-88 196-197 0-108-89-195-196-195z m0 361c-92 0-166-75-166-166 0-90 75-165 166-165 90 0 165 75 165 165 0 91-75 166-165 166z m305-450l-21-21-169 169 21 21z"/>
<glyph glyph-name="searchplus" unicode="&#67;" d="M268 208c-29-23-64-36-101-36-86 0-156 70-156 157 0 86 70 156 156 156 87 0 157-70 157-156 0-36-11-70-34-98l206-199-26-20z m-101 247c-70 0-126-56-126-126 0-70 56-127 126-127 29 0 57 9 79 27l9 8 3 2c24 23 36 55 36 90-1 70-57 126-127 126z m249-96l0 56-55 0 0 30 55 0 0 55 30 0 0-55 55 0 0-30-55 0 0-56z"/>
<glyph glyph-name="top" unicode="&#68;" d="M240 0l0 423-177-138-19 25 212 168 212-170-19-25-177 140 0-423z m-208 480l0 32 448 0 0-32z"/>
<glyph glyph-name="twitter" unicode="&#69;" d="M512 412c-19-9-38-15-60-17 22 12 39 34 47 57-21-13-42-21-66-25-19 21-47 34-77 34-57 0-104-47-104-105 0-8 0-17 2-23-88 4-164 47-216 109-12-15-17-35-17-54 0-36 20-68 47-87-17 0-34 4-47 13 0 0 0 0 0-3 0-51 37-93 84-102-9-2-18-4-28-4-7 0-13 0-19 2 12-43 51-73 98-73-37-27-81-44-130-44-9 0-17 0-26 2 47-30 102-47 160-47 194 0 299 160 299 298l0 13c21 16 38 34 53 56z"/>
<glyph glyph-name="unknown" unicode="&#70;" d="M256 469c117 0 213-96 213-213 0-117-96-213-213-213-117 0-213 96-213 213 0 117 96 213 213 213z m0 43c-141 0-256-115-256-256 0-141 115-256 256-256 141 0 256 115 256 256 0 141-115 256-256 256z m13-324l-26 0 0 34c0 19 15 38 34 43 28 8 45 32 45 59-2 28-30 62-66 62-36 0-66-28-66-62l-26 0c0 49 43 88 94 88 51 0 90-45 94-88 0-38-26-72-66-85-9-2-15-9-15-17l0-34z m13-56c0-14-12-25-26-25-14 0-26 11-26 25 0 14 12 26 26 26 14 0 26-12 26-26z"/>
<glyph glyph-name="up" unicode="&#71;" d="M241 2l0 457-192-152-18 25 225 178 225-180-18-25-192 154 0-457z"/>
<glyph glyph-name="warning" unicode="&#72;" d="M256 480l-243-446 486 0z m15-385l-30 0 0 32 30 0z m-30 66l0 178 30 0 0-178z"/>
<glyph glyph-name="world" unicode="&#73;" d="M256 6c-138 0-250 112-250 250 0 138 112 250 250 250 138 0 250-112 250-250 0-138-112-250-250-250z m-79 149c16-69 48-117 79-117 31 0 63 47 79 117z m192 0c-10-43-23-78-42-104 52 18 95 55 121 104z m-305 0c26-48 68-86 121-104-19 26-32 61-42 104z m398 31c7 24 12 48 12 70 0 25-5 48-11 70l-89 0c4-22 5-45 5-70 0-25-1-48-5-70z m-120 0c4 20 6 43 6 70 0 21-2 45-6 70l-171 0c-4-20-6-43-6-70 0-21 2-45 6-70z m-204 0c-4 22-5 45-5 70 0 25 1 48 5 70l-88 0c-7-25-12-48-12-70 0-25 5-48 11-70z m310 171c-26 48-68 86-121 104 19-26 32-61 42-104z m-113 0c-16 70-48 117-79 117-31 0-63-47-79-117z m-192 0c10 43 23 78 42 104-52-18-95-55-121-104z"/>
<glyph glyph-name="rewind" unicode="&#74;" d="M192 255l64-145c3-5 3-11 0-14-3-3-7-5-13-5l-53 0-80 164 55 120c2 5 5 9 7 14 2 6 4 10 7 14 2 4 7 8 10 11 4 3 8 4 14 4l59 0z m156 0l64-145c3-5 3-11 0-14-3-3-8-5-13-5l-53 0-79 164 62 133c3 7 7 14 10 21 3 6 11 9 20 9l60 0z"/>
<glyph glyph-name="hamburger" unicode="&#75;" d="M480 395c0-12-10-22-21-22l-406 0c-11 0-21 10-21 22l0 21c0 12 10 21 21 21l406 0c11 0 21-9 21-21z m0-160c0-12-10-22-21-22l-406 0c-11 0-21 10-21 22l0 21c0 12 10 21 21 21l406 0c11 0 21-9 21-21z m0-150c0-11-10-21-21-21l-406 0c-11 0-21 10-21 21l0 22c0 11 10 21 21 21l406 0c11 0 21-10 21-21z"/>
<glyph glyph-name="foward" unicode="&#76;" d="M337 255l-64 145c-3 5-3 11 0 14 3 3 8 5 13 5l53 0 79-163-55-122c-2-4-5-8-7-13-2-6-4-10-7-14-2-5-7-8-10-11-4-3-8-4-14-4l-58 0z m-156 0l-64 145c-3 5-3 11 0 14 4 3 8 5 13 5l53 0 79-163-61-133c-4-7-8-14-11-21-3-6-11-9-20-9l-60 0z"/>
<glyph glyph-name="circleexclamation" unicode="&#77;" d="M256 500c-135 0-245-110-245-244 0-135 110-245 245-245 135 0 245 110 245 245 0 134-110 244-245 244z m-53-52c0 0 82 0 82 0 13 0 14-9 14-20l0-58c0-9 2-22 1-36-1-15-1-30-2-47-1-16-3-35-5-51-2-16-3-23-4-44-16 0-49-7-60 10-3 5-4 10-5 16-13 77-21 152-21 230z m95-366c-8-7-22-12-40-12-18 0-32 5-39 12-8 8-12 19-12 36 0 17 4 29 12 37 7 7 21 11 39 11 18 0 32-4 40-11 7-8 11-20 11-37 0-17-3-28-11-36z"/>
<glyph glyph-name="setting" unicode="&#78;" d="M487 220l2 72-47 13c-5 16-11 32-19 47l26 42-50 52-43-25c-14 9-30 15-46 21l-10 48-73 1-14-50c-16-5-32-11-47-19l-40 26-52-50 24-43c-8-14-15-29-19-46l-48-10-1-73 47-13c4-16 10-32 18-47l-26-41 50-52 43 24c14-8 30-15 46-20l11-48 72-1 13 47c16 4 32 10 47 18l42-26 52 50-25 43c9 14 15 30 21 46z m-230-89c-70 1-127 60-126 130 1 71 60 127 130 126 71-1 127-58 126-130-1-70-60-127-130-126z"/>
<glyph glyph-name="chasing-materials" unicode="&#79;" d="M266 61c-13 22-25 40-37 57-11 16-20 25-29 28-17 6-28-3-34-26-6-23-14-36-24-38-14-3-31 5-47 20-18 16-26 32-23 50 7 11 25 18 52 22 10 10 14 18 13 22-8 14-19 25-32 32-13 8-31 13-50 18-20 5-35 10-42 14 13 57 37 92 73 104 10-3 16-11 20-26 3-15 5-24 8-26 8-7 19-9 33-2 14 6 27 16 39 32 11 15 15 27 10 34-4 11-16 16-35 17-20 0-33 4-39 10 2 39 37 68 107 89 3-3 5-8 9-17 4-9 8-15 9-18 1-4 5-9 9-18 4-8 8-14 13-17 4-2 9-7 14-12 5-6 10-8 17-9 6-2 12-2 17-2 4 7 8 17 11 31 2 14 9 23 16 28 18 8 39 4 62-14 23-18 29-37 22-60-3 0-4-1-7-3-37-14-46-33-28-55 23-28 58-47 107-55 0-2-2-11-6-28-4-16-8-28-10-34-3-8-8-17-14-29-7-11-14-17-23-21-9-3-19-4-30-2-2 4-4 11-6 21-3 9-5 17-9 23-4 6-10 9-18 9-28-3-49-19-60-50-12-32 2-47 41-47 14-18 11-36-8-54-19-18-41-31-65-39-4 7-12 20-26 41z"/>
<glyph glyph-name="commited" unicode="&#80;" d="M383 445l-63 0c0 35-28 63-63 63-34 0-62-28-62-63l-63 0 0-62 253 0 0 62z m-127-32c-18 0-32 15-32 32 0 18 14 32 32 32 18 0 32-14 32-32 0-17-14-32-32-32z m157 32l0-94-314 0 0 94-64 0 0-442 442 0 0 442z m-171-375l-23 22-90 90 45 45 67-67 128 128 44-45z"/>
<glyph glyph-name="export" unicode="&#81;" d="M302 141l0 92 81 0-127 183-127-183 81 0 0-92z m69 321l0-46 92 0 0-321-413 0 0 321 91 0 0 46-137 0 0-412 504 0 0 412z"/>
<glyph glyph-name="inventory" unicode="&#82;" d="M248 511l-247-151 0-359 31 0 0 342 216 132 232-132 0-342 31 0 0 359z m178-357l0-153-152 0 0 151 40 0 0-42 74 0 0 44z m-188-2l0-151-152 0 0 153 38 0 0-44 74 0 0 42z m94 183l0-151-152 0 0 151 39 0 0-44 74 0 0 44z"/>
<glyph glyph-name="invoiced" unicode="&#83;" d="M424 508c-25 0-31-22-34-22-2 0-10 22-33 22-24 0-32-22-33-22-1 0-10 22-33 22-25 0-32-22-35-22-3 0-10 22-33 22-23 0-32-22-35-22-2 0-9 22-33 22-24 0-31-22-33-22-3 0-11 22-34 22-19 0-33-15-33-33l0-437c0-19 15-33 33-33l337 0c19 0 33 15 33 33l0 437c0 18-15 33-34 33z m-185-86l0 2c0 9 8 16 17 16 9 0 17-7 17-16l0-2c12-2 27-7 34-12 8-6 10-16 5-23-5-8-15-11-23-6-5 4-23 9-33 9-22 0-33-12-33-16 0-5 10-12 37-17 18-4 64-13 64-50 0-23-22-42-50-48l0-3c0-9-8-17-17-17-9 0-16 8-16 17l0 3c-13 2-27 7-35 12-8 5-10 16-5 23 5 8 15 11 23 6 5-4 23-9 33-9 22 0 34 12 34 16 0 5-11 12-38 17-17 4-64 13-64 50-1 22 22 42 50 48z m-3-370l-18 18-72 71 36 36 54-54 101 101 35-36z"/>
<glyph glyph-name="palletizing" unicode="&#84;" d="M504 221l0-42c0-5-2-10-6-15l-96-97c-4-4-9-6-17-6l-358 0c-5 0-10 3-14 7-4 4-5 9-5 15l0 42c0 7 1 12 5 16l83 83 0 148c0 6 3 11 6 16l55 55c3 5 8 6 16 6l220 0c14 0 22-7 22-21l0-186 69 0c11 0 19-6 20-21z m-441-103l-28 0 0-28 28 0z m404 97l-66 0 0-6c0-2-2-4-3-5l-54-56-1-1-1 0c-2-1-2-1-3-1l-221 0c-5 0-7 2-7 8l0 44-66-66 339 0z m-374-97l-17 0 0-18z m86 0l-65 0-28-28 93 0z m-55 42l209 0 0 206-209 0z m10 219l91 0 43 42-91 0z m140-85c4-3 4-6 0-9l-49-48c-1-1-4-3-5-3-2 0-4 2-4 3l-21 20c-4 4-4 8 0 11 2 3 6 3 9 0l16-17 45 43c3 4 5 4 9 0z m-53-176l-28 0 0-28 28 0z m31 0l-18 0 0-18z m35 303l-43-42 91 0 43 42z m51-303l-67 0-27-28 94 0z m8 252l0-201 41 42 0 201z m33-252l-27 0 0-28 27 0z m97 87l-83-83 0-22 83 82z"/>
<glyph glyph-name="revenue" unicode="&#85;" d="M293 369c-8 5-15 9-24 10-7 1-12 2-17 4-2 1-6 2-9 4-4 1-6 3-7 5 0 1-2 1-2 2 0 2 0 3 0 4 0 1 0 4 2 5 1 3 2 5 5 7 2 1 7 3 15 3 12 0 18-2 22-5 1-1 2-2 4-4 0-2 0-3 0-6l28 0c0 6-2 13-4 18-4 8-12 14-21 19-3 3-9 4-14 5l0 16-28 0 0-16c-4 0-6-1-10-2-10-4-17-10-22-18-4-7-6-16-6-22 0-8 1-14 5-20 2-6 8-9 11-12 8-5 16-8 23-9 6-1 12-2 17-4 4-1 7-2 10-4 4-1 7-3 8-5 1-1 1-1 1-2 0-2 2-3 2-5 0-4-2-5-2-8 0-1-1-3-2-3-2-1-4-2-8-3-5-3-9-3-15-3-9 0-14 3-17 5-1 1-2 3-4 4-1 1-1 4-1 5l-28 0c0-6 1-11 4-18 3-8 10-15 18-19 5-3 10-4 16-5l0-16 28 0 0 16c2 0 2 0 3 0 5 1 9 2 13 4 6 2 13 7 16 14 4 6 7 14 7 23 0 7-2 15-5 20-3 8-7 13-12 16z m183-108c-5 0-10-1-15-4l-13-7c-5 11-17 20-31 20-5 0-10-1-15-4l-19-10c-5 12-17 19-31 19-5 0-10-1-15-4l-55-34c1 0 3-1 5-1 9-3 16-7 24-12 8-5 14-12 19-22 3-6 5-13 5-20 0-14-6-28-15-37-9-9-23-16-37-16l-1 0-29 3-87 13 4 28 89-12 25-2c7 0 13 2 17 6 4 4 7 10 7 17 0 4 0 6-1 7-1 3-2 6-5 7-5 4-13 9-22 11-12 4-29 9-47 16-18 6-37 13-54 18-10 3-20 6-27 7-4 2-18 2-21 0-8-1-17-2-26-4-3 0-5-1-9-1-6 22-24 39-46 39-1 0-49 0-49 0l0-227c0 0 48 0 49 0 19 0 36 13 43 32 55-11 151-32 169-32 32 0 190 111 235 142 9 7 14 17 14 27 0 22-16 37-35 37z"/>
<glyph glyph-name="sales-order" unicode="&#86;" d="M6 28l0 458c0 16 13 29 29 29l133 0c-8-13-11-27-11-41l0-14-94 0 0-387 202 100c14 6 31 1 37-13 1-4 3-8 3-12-2-21 15-40 37-43 22-1 41 15 43 37 0 3 0 4 0 6l0 75 57 0 0-75c0-46-34-85-78-93l-329-55c-16 0-29 13-29 28z m194 277l0 167c0 23 18 41 41 41l222 0c23 0 41-18 41-41l0-167c0-23-18-41-41-41l-112 0-53-53c-4-4-9-4-11 0-2 1-3 4-3 7l0 47-42 0c-23-1-42 18-42 40z m114 139c0-8 6-14 14-14l96 0c7 0 14 6 14 14 0 8-7 14-14 14l-96 0c-8 0-14-6-14-14z m0-52c0-8 6-14 14-14l96 0c7 0 14 6 14 14 0 7-7 14-14 14l-96 0c-8 0-14-7-14-14z m0-53c0-7 6-14 14-14l96 0c7 0 14 7 14 14 0 8-7 14-14 14l-96 0c-8 0-14-6-14-14z m-46 105c0-8 6-14 14-14 7 0 14 6 14 14 0 8-5 14-14 14-8 0-14-6-14-14z m0-52c0-8 6-14 14-14 7 0 14 6 14 14 0 7-7 14-14 14-8 0-14-7-14-14z m0-53c0-7 6-14 14-14 7 0 14 7 14 14 0 8-7 14-14 14-8 0-14-6-14-14z"/>
<glyph glyph-name="scheduling" unicode="&#87;" d="M261 96l-189 0c-17 0-31 6-44 18-13 11-19 27-19 43l0 239c0 16 6 30 19 43 13 13 27 19 45 19l14 0 0-23c0-7 3-14 8-19 5-5 11-8 18-8l27 0c7 0 14 3 19 8 5 6 7 13 7 19l0 23 98 0 0-23c0-7 2-14 7-19 5-5 12-8 20-8l25 0c8 0 14 3 19 8 7 6 9 13 9 19l0 23 14 0c17 0 31-6 44-18 13-11 19-27 19-43l0-140c-17 2-28 3-36 2l0 99-340 0 0-201c0-7 2-14 7-19 6-5 12-7 20-7l185 0c2-16 3-27 4-35z m-156 333c-3 2-4 6-4 10l0 44c0 9 5 14 15 14l20 0c9 0 14-5 14-14l0-44c0-10-5-15-14-15l-20 0c-5 1-7 2-11 5z m40-113c0 7-3 9-9 9l-26 0c-6 0-9-2-9-9l0-25c0-7 3-9 9-9l26 0c6 0 9 2 9 9z m0-59l0-24c0-6-3-10-9-10l-26 0c-6 0-9 4-9 10l0 24c0 7 3 9 9 9l26 0c6 0 9-4 9-9z m59 32c0-6-4-9-11-9l-24 0c-6 0-9 3-9 9l0 26c0 6 3 9 9 9l24 0c7 0 11-3 11-9z m0-56c0-6-4-9-11-9l-24 0c-6 0-9 3-9 9l0 24c0 7 3 11 9 11l24 0c7 0 11-4 11-11z m0-33l0-26c0-6-4-9-11-9l-24 0c-6 0-9 3-9 9l0 26c0 6 3 9 9 9l24 0c8 0 11-3 11-9z m60 116l0-25c0-7-4-9-11-9l-24 0c-6 0-9 2-9 9l0 25c0 7 3 9 9 9l24 0c6-1 9-4 11-9z m0-59l0-24c0-6-4-10-11-10l-24 0c-6 0-9 4-9 10l0 24c0 7 3 9 9 9l24 0c6 0 9-4 11-9z m0-57l0-26c0-6-4-9-11-9l-24 0c-6 0-9 3-9 9l0 26c0 6 3 9 9 9l24 0c6 0 9-3 11-9z m50 24l-26 0c-6 0-9 3-9 9l0 24c0 7 3 11 9 11l26 0c6 0 9-4 9-11l0-24c-2-6-4-9-9-9z m14 259l0-44c0-10-5-15-16-15l-19 0c-9 0-14 5-14 15l0 44c0 9 5 14 14 14l19 0c11 0 16-5 16-14z m12-268c-25-15-42-37-49-65-8-28-4-55 11-81 15-25 37-42 65-50 30-7 57-4 82 12 26 15 43 37 50 65 8 28 4 55-11 81-16 25-37 42-66 50-29 7-56 3-82-12z m125-111c-5-20-17-35-35-44-18-10-36-13-55-8-19 6-33 17-45 34-10 18-13 36-7 55 5 19 16 34 33 43 18 11 36 13 55 8 19-5 34-17 43-33 13-17 16-36 11-55z m-41-4c2-3 2-5 0-9-4-4-7-5-11-1l-25 20 0 1-1 2c-3 1-4 3-4 7l0 2 4 46c0 4 2 6 7 6 5 0 8-2 8-6l2-43 2-2z"/>
<glyph glyph-name="to-be-invoiced" unicode="&#88;" d="M424 508c-25 0-31-22-34-22-2 0-10 22-33 22-24 0-32-22-33-22-3 0-10 22-33 22-23 0-32-22-35-22-3 0-10 22-33 22-23 0-32-22-35-22-2 0-10 22-33 22-23 0-31-22-33-22-3 0-11 22-34 22-19 0-33-15-33-33l0-437c0-19 15-33 33-33l337 0c19 0 33 15 33 33l0 437c0 18-15 33-34 33z m-185-86l0 2c0 9 8 16 17 16 9 0 17-7 17-16l0-2c12-2 27-7 34-12 8-6 10-16 5-23-5-8-15-11-23-6-5 4-23 9-33 9-22 0-33-12-33-16 0-5 10-12 37-17 18-4 64-13 64-50 0-23-22-42-50-48l0-3c0-9-8-17-17-17-9 0-16 8-16 17l0 3c-13 2-27 7-35 12-8 5-10 16-5 23 5 8 15 11 23 6 5-4 23-9 33-9 22 0 34 12 34 16 0 5-11 12-38 17-17 4-64 13-64 50-1 22 22 42 50 48z m135-350l-236 0c-9 0-16 7-16 16 0 9 7 17 16 17l236 0c9 0 16-8 16-17 0-10-7-16-16-16z m0 100l-236 0c-9 0-16 7-16 16 0 9 7 17 16 17l236 0c9 0 16-8 16-17 0-9-7-16-16-16z"/>
<glyph glyph-name="warehouse" unicode="&#89;" d="M499 326l-243 75-243-76 0 21 243 75 243-75z m-5-15l0-220-109 0 0 205-258 0 0-206-109 0 0 221 238 72z m-246-207l0 60c0 6-4 10-10 10l-65 0c-8 0-10-4-10-10l0-60c0-8 3-12 10-12l65 0c6 0 10 4 10 12z m53 96l0 61c0 7-4 10-10 10l-66 0c-7 0-11-3-11-10l0-61c0-8 4-11 11-11l66 0c6 0 10 4 10 11z m51-96l0 60c0 6-4 10-10 10l-66 0c-7 0-10-4-10-10l0-60c0-8 4-12 10-12l66 0c6 0 10 4 10 12z"/>
<glyph glyph-name="waiting" unicode="&#90;" d="M390 342c21 20 32 48 32 78l0 42 34 0 0 45-400 0 0-45 34 0 0-42c0-30 11-58 32-78l74-74c6-7 6-17 0-24l-74-74c-21-20-32-48-32-78l0-42-34 0 0-45 400 0 0 45-34 0 0 42c0 30-11 58-32 78l-74 74c-6 7-6 17 0 24z m-26-199c14-14 20-32 20-50l0-47-37 0c-15 14-73 68-91 68-18 0-76-54-91-68l-37 0 0 47c0 20 8 38 20 50l75 75c9 9 14 21 15 33l17-106 16 106c2-13 7-24 16-33z m-108 215c-46 0-97 14-113 18-10 13-15 28-15 44l0 48 256 0 0-47c0-17-5-31-15-43-16-7-67-20-113-20z"/>
<glyph glyph-name="visibility" unicode="&#48;" d="M256 426c-134 0-243-170-243-170 0 0 109-170 243-170 134 0 243 170 243 170 0 0-109 170-243 170z m0-292c-67 0-122 54-122 122 0 68 54 122 122 122 68 0 122-54 122-122 0-68-55-122-122-122z m36 146c-21 0-36 17-36 36 0 4 1 8 3 12-2 0-2 0-3 0-40 0-73-34-73-73 0-40 33-73 73-73 40 0 73 33 73 73 0 13-4 25-10 36-7-7-16-11-27-11z"/>
<glyph glyph-name="units-sold" unicode="&#49;" d="M209 105c-22 0-40-18-40-40 0-21 18-39 40-39 21 0 39 18 39 39 0 22-18 40-39 40z m185 0c-22 0-39-18-39-40 0-21 17-39 39-39 22 0 40 18 40 39 0 22-19 40-40 40z m96 224c0 0-18 15-30-22-20-70-44-139-44-139l-225 0-27 128-21 115c-1 9-7 17-16 19l-94 24c-11 3-24-1-27-12-2-12 4-23 16-26l83-20 45-242c0 0 1-27 25-27l255 0c21 0 24 21 24 21l49 152c-3-2 14 21-13 29z m-234 35l37 37 0-126c0-13 12-22 23-22 12 0 23 9 23 22l0 127 37-38c8-9 21-9 30 0 4 3 5 10 5 16 0 7-1 12-5 17l-76 84c-1 2-4 4-6 5-3 2-5 2-8 2-2 0-5 0-8-2-2-1-5-2-6-5l-74-84c-4-4-5-10-5-17 0-6 1-11 5-16 8-9 20-9 28 0z"/>
<glyph glyph-name="truck" unicode="&#50;" d="M15 431l0-293c0-15 12-27 27-27l8 0c0 3 0 5 0 8 0 35 27 63 61 63 34 0 62-28 62-63 0-3 0-5 0-8l150 0c0 3 0 5 0 7 0 30 23 57 51 61l0 252z m455-119l-78 0 0-132c29-5 52-30 52-61 0-3 0-5 0-6l54 0 0 172c-1 15-13 27-28 27z m6-69l-37 0 0 49 37 0z m-325-121c0-23-18-41-41-41-23 0-41 18-41 41 0 22 18 41 41 41 23 0 41-19 41-41z m273 0c0-23-19-41-41-41-23 0-41 18-41 41 0 22 18 41 41 41 22 0 41-19 41-41z"/>
<glyph glyph-name="clevercheck" unicode="&#51;" d="M224 338c-1 1-4 1-6 0l-59-59-34 33c-1 2-3 2-6 0l-20-20c-2-1-2-4 0-7l57-57c1-1 4-1 7 0l81 82c2 1 2 4 0 6z m108 122l-107 0c3 5 4 8 4 15 0 19-17 36-36 36-19 0-36-17-36-36 0-5 2-10 4-15l-137 0 0-388c0-17 14-31 31-31l132 0c0 1 0 4 0 5l0 26-132 0 0 357 56 0c-10-7-16-16-19-25 0 0 0 0 0-1 0-2 3-5 5-5l194 0c2 0 5 3 5 5 0 0 0 1 0 1-3 9-9 17-20 24l57 0 0-98c5 0 10 2 15 2 5 0 10 0 16-2l0 99c-2 18-15 31-32 31z m-135 0l-8 0c-6 1-11 7-11 15 0 9 6 15 15 15 9 0 16-6 16-15 0-8-5-13-12-15z m56-459c-25 0-44 19-44 45l0 81 234 0c25 0 45-19 45-45l0-81z m95 149c55 0 77 23 77 80 0 58-22 81-77 81-55 0-77-23-77-81 0-56 22-80 77-80z"/>
<glyph glyph-name="maker" unicode="&#52;" d="M41 328l183 137 88-118-183-138z m470 4l-109 0c-15 0-31-3-51-20l-200-147-13 17 213 160-100 134c-12 16-33 19-49 7l-201-150 59-80c-8 0-16-3-23-9-19-14-23-40-9-60 0 0 103-137 108-143 6-9 19-19 41-19l190 0-11 19-179 0c-12 0-20 4-26 11-5 7-107 144-107 144-8 10-7 25 5 33 10 8 24 7 32-4l98-132 81 0 0 21-55 0c-12 0-22 9-22 22 0 11 10 21 22 21l153 0c6 0 9 0 14-1 16-4 30-15 36-31l58-102 22 0-63 111c-10 20-27 35-49 40-6 1-11 3-18 3l-55 0z"/>
<glyph glyph-name="recycle" unicode="&#53;" d="M251 436l-58-99c0-2-1-2-2-3 0 0-2 0-2 0-1 0-1 0-2 0l-63 37c-2 1-2 4-1 7 2 3 15 26 28 47 1 3 4 6 5 9 10 18 19 32 19 33 7 9 20 16 30 16 0 0 1 0 1 0 10 0 23-4 30-16 1-1 5-9 8-15 4-7 7-12 7-12 1-1 1-2 0-4z m160-26l-30-72c-1-1-2-3-3-3 0 0 0 0-2 0l-76 12c-2 0-4 1-4 4 0 1 0 4 2 5l18 10c-6 12-24 42-40 69 0 0 0 0 0 1 0 2-1 2-1 3 0 1-1 3-1 3-4 6-8 12-10 18-5 10-9 16-11 16-3 8-9 10-9 12-1 1-2 2-2 5 0 2 2 4 4 4 0 0 41 0 65 0 4 0 8 0 10 0 0 0 2 0 2 0 0 0 1 0 1 0 1 0 1 0 2 0 9 0 13-8 16-12l0-1 45-78 19 10c1 0 1 0 2 0 2 0 3 0 3-1 0-2 0-3 0-5z m-160 26l-58-99c0-2-1-2-2-3 0 0-2 0-2 0-1 0-1 0-2 0l-63 37c-2 1-2 4-1 7 2 3 15 26 28 47 1 3 4 6 5 9 10 18 19 32 19 33 7 9 20 16 30 16 0 0 1 0 1 0 10 0 23-4 30-16 1-1 5-9 8-15 4-7 7-12 7-12 1-1 1-2 0-4z m160-26l-30-72c-1-1-2-3-3-3 0 0 0 0-2 0l-76 12c-2 0-4 1-4 4 0 1 0 4 2 5l18 10c-6 12-24 42-40 69 0 0 0 0 0 1 0 2-1 2-1 3 0 1-1 3-1 3-4 6-8 12-10 18-5 10-9 16-11 16-3 8-9 10-9 12-1 1-2 2-2 5 0 2 2 4 4 4 0 0 41 0 65 0 4 0 8 0 10 0 0 0 2 0 2 0 0 0 1 0 1 0 1 0 1 0 2 0 9 0 13-8 16-12l0-1 45-78 19 10c1 0 1 0 2 0 2 0 3 0 3-1 0-2 0-3 0-5z m-315-287l115 0c1 0 3 0 4-1 0 0 0 0 1-2 0-1 0-1 0-2l0-73c0-3-2-5-5-5-5 0-31 0-55 0-4 0-6 0-10 0-21 0-37 0-40 0-11 0-23 9-28 18 0 0 0 1-1 1-5 9-8 22-1 33 1 4 5 10 8 17 4 6 7 11 7 11 1 3 2 3 5 3z m-58 151l77 10c1 0 4-1 5-2l28-72c2-1 0-4-1-5-1-1-4-1-5 0l-18 10c-6-11-24-42-40-69 0 0 0 0 0-1 0-2-1-2-1-3 0-1-1-2-1-2-4-7-8-13-10-18-5-9-9-17-11-17-3-8-5-14-5-14 0-3-1-4-4-4-2 0-3 0-5 3 0 0-20 35-33 56-1 1-4 5-5 8 0 0 0 1-1 1 0 0 0 1 0 1 0 1-2 1-2 1-5 8 0 16 3 20l0 1 45 77-18 11c-1 0-1 2-1 2 0 1-2 2 0 3 0 2 1 3 3 3z m401-131l-58 100c0 1-1 3 0 4 0 0 0 1 0 1 0 2 2 2 2 2l62 35c3 2 6 0 7-1 2-4 15-27 27-47 1-3 4-7 5-9 10-18 19-32 19-35 5-10 4-24-1-33 0 0 0-1-2-1-5-9-14-18-26-18-3 0-11 0-17 0-6 0-13 0-14 0-1 0-3 1-4 2z m-102-125l-48 61c-1 2-1 4 0 5l49 62c1 1 4 2 5 1 1 0 3-2 3-4l0-20c12 0 48 0 79 0 0 0 0 0 1 0 2 0 3 0 3 0 1 0 2 0 4 0 7 0 15 0 20 0 12 0 19 0 21 0 9 0 14 2 14 2 1 2 4 0 5-1 1-1 1-4 1-5 0 0-20-36-32-56-2-4-4-7-5-9 0 0 0-2-1-2 0 0 0-1-2-1 0-1-1-1-1-1-5-8-13-8-18-8l-91 0 0-22c0-1 0-1 0-2 0-1-1-1-2-3-2 0-4 2-5 3z m102 125l-58 100c0 1-1 3 0 4 0 0 0 1 0 1 0 2 2 2 2 2l62 35c3 2 6 0 7-1 2-4 15-27 27-47 1-3 4-7 5-9 10-18 19-32 19-35 5-10 4-24-1-33 0 0 0-1-2-1-5-9-14-18-26-18-3 0-11 0-17 0-6 0-13 0-14 0-1 0-3 1-4 2z m-102-125l-48 61c-1 2-1 4 0 5l49 62c1 1 4 2 5 1 1 0 3-2 3-4l0-20c12 0 48 0 79 0 0 0 0 0 1 0 2 0 3 0 3 0 1 0 2 0 4 0 7 0 15 0 20 0 12 0 19 0 21 0 9 0 14 2 14 2 1 2 4 0 5-1 1-1 1-4 1-5 0 0-20-36-32-56-2-4-4-7-5-9 0 0 0-2-1-2 0 0 0-1-2-1 0-1-1-1-1-1-5-8-13-8-18-8l-91 0 0-22c0-1 0-1 0-2 0-1-1-1-2-3-2 0-4 2-5 3z m-18 173c4 11 6 25 6 38l35 0c-2-14-5-27-12-38z m-30-49c11 10 18 22 23 35l27 0c-11-17-29-30-50-35m-103 35l26 0c7-13 15-26 24-35-21 5-39 18-50 35m-9 14c-7 11-11 24-12 38l35 0c0-14 2-27 6-38z m0 91l30 0c-3-12-6-26-6-39l-35 0c0 14 4 27 11 39m59 48c-9-9-18-22-24-34l-26 0c12 16 29 28 50 34m104-34l-26 0c-7 12-14 25-25 34 21-6 39-18 51-34m-70-53l0 39 33 0c4-12 8-26 8-39z m0-52l0 38 42 0c-1-14-4-27-7-38z m0-48l0 34 28 0c-7-14-16-26-28-34m-14 34l0-34c-12 8-20 20-28 34z m0 52l0-38-35 0c-3 11-7 25-7 38z m0 53l0-39-42 0c1 14 4 27 7 39z m0 47l0-33-28 0c8 14 16 25 28 33m41-33l-28 0 0 33c13-9 22-21 28-33m52-14c7-12 11-25 12-39l-35 0c-1 14-2 27-6 39z m-87 66c-61 0-112-50-112-112 0-62 50-113 112-113 62 0 113 50 113 113 0 62-50 112-113 112"/>
</font>
</defs>
</svg>
